<svg width="1230" height="493" viewBox="0 0 1230 493" fill="none" xmlns="http://www.w3.org/2000/svg">
<path d="M1187.8 491.912C1187.54 491.649 1182.69 490.957 1177.02 490.374C1171.35 489.79 1164.81 489.077 1162.49 488.788C1148.69 487.071 1045.67 488.233 1031.56 490.265C1025.13 491.19 988.332 489.887 981.547 488.494C979.227 488.017 964.672 486.769 949.203 485.719C933.734 484.669 915.383 483.37 908.422 482.831C901.461 482.292 886.484 481.63 875.141 481.36C837.062 480.452 825.545 480.073 807.641 479.138C797.844 478.627 783.5 478.158 775.766 478.097C768.032 478.036 759.383 477.59 756.547 477.105C753.711 476.621 734.516 475.795 713.891 475.272C693.266 474.748 670.485 474.122 663.266 473.881C656.047 473.64 643.602 473.291 635.61 473.105C619.22 472.723 618.576 472.566 616.083 468.341C615.093 466.662 612.555 464.063 610.444 462.565C608.333 461.067 606.17 458.615 605.637 457.116C605.103 455.616 603.868 453.83 602.891 453.146C596.191 448.453 581.665 422.031 577.445 406.859L575.225 398.875L557.84 400.54C548.278 401.456 526.168 403.704 508.707 405.536C491.246 407.368 476.344 408.631 475.591 408.342C474.838 408.053 467.701 408.87 459.729 410.156C451.757 411.443 443.035 412.74 440.345 413.039C389.679 418.676 284.065 433.339 214.325 444.419C201.501 446.457 188.634 448.125 185.731 448.127C182.828 448.129 176.657 448.799 172.016 449.616C167.375 450.432 162.313 451.303 160.766 451.551C159.219 451.799 154.789 452.582 150.922 453.29C147.055 453.999 141.731 454.846 139.091 455.172C136.452 455.499 133.13 456.369 131.71 457.105C126.184 459.973 96.8923 464.044 86.2043 463.431C78.4462 462.986 74.9313 463.217 69.7983 464.511C66.2051 465.417 60.3121 466.718 56.7023 467.402C53.0929 468.086 48.2414 469.14 45.9213 469.745C34.1873 472.815 9.30031 469.995 3.18031 464.925C0.876414 463.005 -0.338586 372.775 1.61031 348.285C2.30961 339.495 2.22221 325.335 1.43601 320.035C0.177314 311.565 4.19341 304.695 10.4073 304.695C15.9256 304.695 15.7336 310.116 9.94456 317.768C7.08556 321.546 6.87566 324.019 9.14199 327.221C11.8466 331.042 12.093 424.03 9.39409 422.362C8.18669 421.615 7.50189 424.427 7.49429 430.162C7.4904 433.084 7.04902 438.176 6.51347 441.477C5.19527 449.601 5.91088 452.112 10.4389 455.25C14.5088 458.07 15.894 457.52 15.9245 453.071C15.9418 450.541 20.0062 449.168 22.6301 450.807C24.9684 452.267 29.5465 452.142 35.0721 450.465C37.6033 449.697 41.9026 449.069 44.6261 449.069C47.3497 449.069 49.8216 448.675 50.1194 448.193C50.4334 447.685 56.2639 447.489 64.0024 447.725C77.8284 448.148 91.9424 446.459 116.719 441.415C137.15 437.256 164.564 433.676 169.572 434.512C173.097 435.1 219.607 428.28 236.25 424.735C241.149 423.691 252.117 422.184 260.625 421.386C282.805 419.305 307.07 415.683 332.813 410.612C354.25 406.389 402.199 398.948 413.907 398.027C418.032 397.703 426.891 396.418 433.595 395.172C457.194 390.786 476.811 388.111 485.302 388.121C490.023 388.127 499.515 387.52 506.396 386.772C513.278 386.024 522.493 385.165 526.876 384.863C531.259 384.561 542.438 383.283 551.72 382.023C561.002 380.763 574.446 379.546 581.598 379.319C596.636 378.842 596.932 378.694 594.615 372.795C591.994 366.122 590.729 365.077 584.955 364.813C582.177 364.686 579.401 364.165 578.786 363.655C578.037 363.034 577.448 363.085 577 363.811C576.507 364.609 571.116 364.719 556.526 364.231C537.078 363.581 526.394 364.202 500.627 367.481C496.759 367.973 490.432 368.637 486.565 368.956C482.697 369.275 472.362 370.535 463.596 371.755C454.83 372.974 444.916 374.223 441.565 374.53C438.213 374.837 431.674 375.67 427.034 376.382C422.393 377.094 414.8 378.157 410.159 378.745C402.656 379.695 381.878 382.811 366.097 385.352C363.003 385.85 356.042 386.918 350.628 387.726C345.213 388.533 333.401 390.611 324.378 392.343C315.354 394.076 294.472 398.086 277.972 401.256C261.472 404.425 241.011 408.528 232.503 410.373C223.995 412.218 214.503 414.089 211.409 414.532C208.315 414.974 202.83 415.764 199.221 416.288C195.611 416.812 189.916 418.063 186.565 419.068C176.888 421.97 135.189 431.864 127.971 432.971C94.5166 438.101 82.4036 439.076 79.6926 436.857C78.402 435.801 76.1885 434.214 74.7738 433.331C73.1319 432.306 72.1995 430.91 72.1957 429.47C72.1901 427.325 72.2748 427.293 73.9485 428.807C82.6017 436.638 83.6524 432.107 77.947 411.564C72.804 393.064 70.954 385.174 69.379 375.004C68.7797 371.137 67.8999 366.204 67.4237 364.042C66.9475 361.88 66.5476 358.294 66.535 356.074C66.5224 353.853 66.0923 350.216 65.5792 347.991C64.6 343.745 65.2682 340.858 66.6562 343.338C67.0833 344.101 68.3062 350.378 69.3739 357.287C71.7646 372.756 75.0115 388.157 78.7421 401.723C80.3018 407.395 82.4283 415.307 83.4675 419.305C86.4659 430.84 86.6994 431.254 90.2065 431.255C100.165 431.257 135.11 426.581 146.246 423.757C150.113 422.777 157.918 420.88 163.59 419.544C169.261 418.207 175.379 416.755 177.184 416.317C178.988 415.88 184.262 414.82 188.903 413.961C193.543 413.103 198.606 412.033 200.153 411.583C201.699 411.133 207.606 409.674 213.278 408.341C218.949 407.008 226.755 405.082 230.622 404.062C234.489 403.041 245.88 400.261 255.934 397.882C265.989 395.504 280.543 391.666 288.278 389.352C296.012 387.039 303.606 384.82 305.153 384.421C306.699 384.022 312.395 382.353 317.809 380.712C323.223 379.071 330.606 376.878 334.215 375.839C337.824 374.8 345.418 372.524 351.09 370.782C372.151 364.312 374.809 363.6 387.713 360.968C394.965 359.489 403.192 357.661 405.994 356.905C417.445 353.815 447.278 344.951 455.36 342.237C465.792 338.733 466.972 338.465 499.214 332.284C515.021 329.254 522.441 329.523 544.214 333.914C550.521 335.187 567.543 336.052 569.732 335.212C570.785 334.808 570.212 334.026 567.531 332.207C565.538 330.854 562.617 328.763 561.04 327.561C556.797 324.324 549.861 321.5 546.738 321.738C545.23 321.853 542.99 321.295 541.761 320.498C534.183 315.584 488.7 315.939 467.262 321.08C441.632 327.226 436.098 328.906 418.202 335.971C408.953 339.622 415.546 338.567 437.827 332.83C449.934 329.714 466.356 325.483 474.32 323.428C490.889 319.154 492.664 318.989 494.275 321.568C495.108 322.903 496.461 323.443 498.97 323.443C508.014 323.443 503.2 325.178 472.963 332.816C461.104 335.812 448.236 339.109 444.369 340.143C434.063 342.897 428.089 343.501 428.772 341.72C429.426 340.016 426.662 339.854 421.863 341.314C420.061 341.862 416.478 342.678 413.9 343.128C406.844 344.358 393.051 347.454 386.712 349.231C383.618 350.098 379.399 351.177 377.337 351.629C373.6 352.447 361.773 355.577 351.087 358.575C345.225 360.219 339.895 361.637 318.743 367.175C301.008 371.818 301.141 371.781 294.368 373.931C291.016 374.994 285.743 376.497 282.649 377.27C279.555 378.044 274.071 379.566 270.461 380.653C266.852 381.741 257.57 384.035 249.836 385.753C235.113 389.022 231.771 389.817 217.961 393.34C213.32 394.524 206.57 396.171 202.961 397C194.364 398.974 178.234 403.338 160.773 408.413C153.039 410.661 144.39 413.119 141.554 413.875C126.356 417.926 121.219 419.528 119.523 420.747C117.724 422.039 117.742 422.07 119.992 421.501C121.281 421.174 127.398 420.047 133.586 418.996C139.773 417.944 149.882 415.833 156.049 414.304C170.599 410.698 188.965 406.638 202.492 404.038C208.421 402.899 214.076 401.546 215.057 401.032C216.038 400.518 225.741 397.846 236.619 395.094C247.497 392.342 259.984 389.071 264.366 387.827C268.748 386.582 280.35 383.384 290.147 380.721C313.368 374.407 322.601 371.798 335.147 368.004C364.553 359.11 385.003 353.059 390.459 351.636C392.006 351.232 396.683 349.715 400.854 348.264C408.67 345.544 415.589 345.55 409.208 348.271C404.818 350.143 377.865 359.106 372.646 360.429C370.068 361.082 361.63 363.753 353.896 366.363C338.006 371.726 335.184 372.578 325.302 374.995C315.758 377.329 302.926 380.759 281.708 386.649C271.911 389.368 260.099 392.522 255.458 393.657C250.818 394.792 238.794 397.828 228.739 400.403C218.684 402.978 207.716 405.654 204.364 406.35C201.013 407.046 195.989 408.085 193.199 408.658C190.41 409.231 186.403 410.174 184.293 410.752C182.184 411.33 178.138 412.334 175.302 412.981C172.466 413.629 166.137 415.215 161.24 416.505C156.341 417.795 148.326 419.555 143.428 420.416C138.529 421.277 130.725 422.807 126.084 423.817C108.878 427.562 96.1576 428.075 93.7086 425.124C89.0596 419.514 64.5346 326.094 67.0566 323.574C68.556 322.074 70.041 327.171 79.0386 364.696C84.4147 387.118 94.3656 419.65 96.6386 422.237C97.9456 423.724 109.517 420.871 113.694 418.032C115.872 416.551 121.029 414.301 125.155 413.03C139.242 408.692 174.539 398.687 189.843 394.695C193.452 393.754 200.413 391.912 205.312 390.604C222.754 385.944 244.333 380.414 251.718 378.711C255.843 377.76 263.226 375.911 268.124 374.602C273.022 373.294 278.768 372.217 280.893 372.21C284.805 372.196 297.653 368.75 312.187 363.816C324.956 359.481 340.757 354.736 354.375 351.146C361.335 349.311 370.406 346.784 374.531 345.531C381.304 343.473 393.094 339.934 420.469 331.742C425.625 330.199 431.742 328.133 434.063 327.151C436.383 326.17 441.023 324.712 444.375 323.912C447.726 323.112 451.478 322.029 452.712 321.505C454.776 320.628 458.327 319.781 473.906 316.451C508.814 308.99 557.646 315.84 570.457 329.995C571.397 331.034 572.651 331.883 573.243 331.883C573.836 331.883 576.359 333.176 578.85 334.756C584.32 338.225 585.799 337.435 583.559 332.241C582.696 330.24 581.017 325.649 579.828 322.039C576.446 311.768 572.412 301.313 567.815 290.901C562.894 279.757 557.348 263.043 556.448 256.641C555.177 247.603 541.174 230.91 528.75 223.624C504.424 209.357 467.068 204.446 417.19 208.956C398.953 210.605 352.7 222.103 348.331 226.074C347.842 226.519 346.511 226.883 345.375 226.883C344.239 226.883 331.773 230.686 317.672 235.333C303.571 239.98 290.347 244.22 288.284 244.755C283.716 245.941 245.474 258.026 237.66 260.753C224.516 265.341 193.151 272.844 179.535 274.659C173.56 275.456 160.657 277.825 148.596 280.341C125.224 285.215 101.987 289.082 86.7215 290.639C82.0809 291.112 73.0105 292.334 66.5655 293.355C54.4605 295.273 52.5345 295.015 54.3025 291.713C55.8121 288.892 60.5437 287.896 77.3475 286.861C96.5955 285.676 107.475 284.139 140.628 277.922C150.168 276.133 160.504 274.226 163.598 273.683C166.691 273.14 170.91 272.322 172.973 271.866C175.035 271.41 178.832 270.782 181.41 270.471C186.572 269.847 198.707 267.508 200.743 266.745C201.454 266.478 205.621 265.453 210.004 264.467C218.857 262.474 243.084 255.779 248.91 253.715C250.972 252.985 258.355 250.625 265.316 248.471C275.739 245.245 311.389 233.541 362.347 216.614C426.209 195.4 493.357 196.548 532.387 219.52C548.743 229.148 566.369 252.645 563.471 260.959C562.319 264.264 565.612 275.634 567.721 275.634C570.288 275.634 574.404 284.703 585.168 314.072C593.453 336.677 594.652 340.364 593.949 341.067C593.089 341.927 589.74 337.446 589.714 335.401C589.703 334.499 589.328 333.76 588.882 333.76C588.429 333.76 588.416 335.522 588.854 337.745C589.284 339.936 589.913 343.3 590.25 345.221C590.711 347.849 591.633 349.166 593.978 350.55C597.776 352.791 600.358 357.635 602.318 366.197C603.133 369.755 604.664 375.293 605.721 378.502C608.216 386.078 607.872 388.334 604.036 389.575C600.021 390.872 599.665 391.365 601.089 393.646C602.047 395.179 602.06 395.831 601.154 396.738C599.566 398.326 599.717 405.032 601.456 410.154C602.253 412.502 602.659 414.823 602.358 415.311C601.509 416.684 604.551 426.123 606.606 428.492C607.616 429.657 608.443 431.219 608.443 431.963C608.443 433.657 611.644 438.281 615.608 442.312C617.274 444.007 618.77 446.523 618.931 447.904C619.167 449.919 619.855 450.541 622.423 451.062C628.713 452.339 630.191 449.537 624.88 446.403C621.381 444.339 620.163 441.437 620.845 436.789C621.212 434.286 620.801 433.593 617.754 431.576C612.156 427.872 609.688 419.629 608.783 401.608C608.042 386.863 608.061 386.836 620.323 385.886C624.536 385.56 631.919 384.473 636.729 383.472C656.264 379.407 660.86 378.813 691.881 376.346C709.757 374.924 747.335 374.073 770.162 374.574C785.115 374.902 808.107 375.328 821.256 375.52C834.404 375.712 846.85 376.299 848.912 376.824C850.974 377.349 857.092 377.789 862.506 377.802C867.92 377.815 879.944 378.257 889.225 378.784C898.506 379.312 915.381 380.197 926.725 380.75C957.169 382.236 972.683 383.101 990.475 384.305C999.7 384.929 1013.72 385.138 1023.76 384.801C1033.29 384.481 1059.66 384.695 1082.35 385.277C1105.04 385.859 1132.04 386.513 1142.35 386.731C1152.66 386.949 1168.13 387.401 1176.72 387.736C1194.14 388.414 1196.05 388.039 1191.37 384.86C1189.64 383.682 1186.14 380.247 1183.6 377.225C1177.36 369.806 1175.45 368.05 1169.45 364.218C1166.63 362.413 1162.55 359.322 1160.37 357.347C1158.19 355.373 1154 351.998 1151.05 349.848C1148.11 347.698 1143.41 342.882 1140.62 339.147C1134.26 330.622 1132.61 328.917 1128.13 326.224C1126.16 325.033 1122.41 322.128 1119.81 319.769C1117.21 317.41 1112.27 313.202 1108.84 310.418C1098.9 302.364 1094.62 296.261 1098.9 296.261C1101.4 296.261 1105.15 299.043 1116.57 309.37C1121.47 313.8 1127.35 318.675 1129.63 320.202C1135.21 323.933 1139.45 328.399 1143.85 335.199C1145.86 338.31 1148.88 341.656 1150.55 342.635C1154.32 344.831 1159.84 349.035 1165.06 353.677C1167.24 355.614 1169.45 357.199 1169.96 357.199C1171.65 357.199 1185.1 369.567 1187.44 373.284C1188.71 375.294 1191.89 378.254 1194.5 379.862C1198.03 382.032 1199.71 383.838 1201 386.867C1201.97 389.112 1203.16 390.949 1203.66 390.949C1205.98 390.949 1205.56 394.794 1202.73 399.391C1199.8 404.144 1199.77 404.337 1200.9 409.394C1201.97 414.174 1201.91 414.701 1200.14 416.591C1199.08 417.713 1197.52 420.312 1196.67 422.368C1194.55 427.449 1181.41 429.556 1168.25 426.925C1161.22 425.52 1165.1 423.761 1175.23 423.761C1180.67 423.761 1185.95 423.324 1186.94 422.79C1189.4 421.476 1189.24 419.2 1186.65 418.708C1185.49 418.487 1182.43 417.81 1179.85 417.204C1170.07 414.905 1159.87 414.364 1118.57 413.955C1095.17 413.723 1075.78 413.281 1075.47 412.971C1073.9 411.4 1079 410.663 1091.55 410.65C1113.48 410.628 1105.29 408.136 1080.48 407.284C1075.32 407.107 1052.75 406.321 1030.32 405.539C1007.89 404.756 968.866 403.856 943.6 403.538C918.334 403.22 897.298 402.615 896.854 402.192C894.437 399.897 898.012 399.468 916.214 399.869C926.636 400.098 949.718 400.506 967.507 400.776C1043.92 401.935 1097.87 404.591 1168.54 410.676L1190.03 412.526L1192.13 410.551C1194.27 408.548 1195.09 406.784 1197.24 399.616C1199.18 393.178 1198.94 393.148 1140.01 392.284C1113.97 391.902 1087.82 391.485 1081.89 391.357C1075.96 391.23 1054.02 390.887 1033.14 390.595C1012.25 390.303 989.896 389.64 983.45 389.122C977.004 388.603 966.669 387.762 960.481 387.253C945.032 385.981 901.33 384.162 880.325 383.917C870.786 383.805 857.708 383.245 851.263 382.671C823.627 380.212 715.363 379.789 690.013 382.042C682.021 382.752 671.685 383.587 667.044 383.897C659.204 384.42 654.62 385.142 636.815 388.657C633.079 389.394 627.068 390.272 623.456 390.608C616.781 391.228 616.525 391.424 616.875 395.636C617.317 400.959 620.025 401.107 659.075 397.943C692.666 395.221 731.465 395.217 707.591 397.937C697.644 399.071 632.289 404.074 627.248 404.088C619.672 404.109 617.825 406.475 617.825 416.158C617.825 437.229 640.558 457.182 666.106 458.537C674.356 458.974 686.801 459.776 693.762 460.319C700.723 460.863 725.614 461.717 749.074 462.217C772.535 462.718 795.949 463.592 801.105 464.16C806.758 464.783 818.598 464.987 830.93 464.675C842.177 464.39 856.059 464.568 861.777 465.07C867.496 465.571 881.286 466.171 892.421 466.403C903.556 466.634 920.472 467.248 930.011 467.766C939.55 468.284 956.847 468.73 968.449 468.758C980.051 468.786 993.761 469.229 998.918 469.743C1007.56 470.602 1066.24 472.875 1074.86 472.683C1104.13 472.032 1154.62 472.435 1159.49 473.359C1169.54 475.269 1208.7 474.677 1212.12 472.562C1212.91 472.073 1212.51 470.786 1210.73 468.061L1208.23 464.245L1197.32 463.57C1186.01 462.87 1181.68 461.919 1182.65 460.347C1183.01 459.777 1187.59 459.651 1194.76 460.014C1208.77 460.724 1209.19 460.333 1201.91 453.39L1196.35 448.085L1188.57 448.602C1184.29 448.887 1177.74 449.338 1174 449.605C1168.55 449.993 1167.2 449.827 1167.2 448.771C1167.2 447.259 1172.53 446.321 1182.1 446.15C1193.06 445.954 1193.96 445.513 1193.65 440.514C1193.18 432.981 1197.25 431.881 1199.12 439.035C1199.68 441.205 1202.23 446.028 1204.77 449.755C1207.31 453.481 1209.39 457.163 1209.39 457.936C1209.39 458.71 1210.4 460.006 1211.64 460.817C1212.87 461.627 1214.4 463.531 1215.03 465.047C1215.66 466.563 1217.81 469.284 1219.81 471.092C1221.81 472.901 1223.45 474.762 1223.45 475.227C1223.45 475.692 1224.93 478.267 1226.73 480.949C1228.54 483.631 1230.01 486.189 1230.01 486.635C1230.01 489.001 1217.68 491.47 1207.51 491.14C1203.65 491.015 1197.74 491.247 1194.39 491.657C1191.04 492.067 1188.08 492.187 1187.83 491.925L1187.8 491.912ZM1055.51 481.258C1073.4 480.296 1068.57 478.71 1045.49 477.966C1034.82 477.622 1023.55 476.894 1020.46 476.349C1012.61 474.966 950.615 473.832 950.615 475.071C950.615 475.613 954.361 476.24 959.287 476.522C964.057 476.796 972.81 477.711 978.74 478.555C995.51 480.943 1035.31 482.344 1055.51 481.258L1055.51 481.258ZM1215.93 481.028C1220.58 479.723 1215.47 478.441 1208.65 479.2C1205.18 479.586 1201.49 479.99 1200.46 480.097C1198.3 480.322 1206.56 481.552 1210.77 481.632C1212.32 481.662 1214.64 481.39 1215.93 481.028ZM933.35 474.139C934.07 473.419 933.087 473.317 922.491 473.013C919.14 472.917 912.389 472.315 907.491 471.676C902.007 470.96 894.983 470.75 889.21 471.13C883.403 471.513 876.267 471.296 870.46 470.561C865.102 469.882 849.436 469.319 833.898 469.246C817.74 469.17 802.527 468.608 796.398 467.861C785.142 466.488 751.802 466.155 748.087 467.379L745.773 468.141L748.117 468.82C749.406 469.193 755.403 469.541 761.445 469.592C767.486 469.644 779.721 470.085 788.633 470.574C845.764 473.707 931.663 475.823 933.353 474.139L933.35 474.139ZM689.09 466.879C688.317 466.379 685.575 465.945 682.997 465.915C680.418 465.884 676.411 465.464 674.09 464.981C671.77 464.497 665.449 463.654 660.043 463.107C647.241 461.811 634.389 458.972 630.533 456.589C626.86 454.318 620.653 453.996 620.653 456.076C620.653 459.28 630.695 462.475 645.965 464.129C650.348 464.603 657.942 465.576 662.84 466.291C673.485 467.845 691.198 468.241 689.09 466.879ZM65.6503 456.139C72.6112 455.335 82.1443 454.235 86.8343 453.695C91.5245 453.155 97.5103 452.146 100.135 451.453C103.192 450.647 107.712 450.362 112.701 450.662C136.842 452.111 189.056 442.006 170.17 439.539C162.03 438.476 131.222 442.959 126.812 445.848C125.515 446.698 123.647 447.111 122.507 446.8C120.607 446.281 112.274 447.255 90.3999 450.553C85.1925 451.338 75.4889 452.345 68.8379 452.791C58.3339 453.495 51.0359 454.738 48.5249 456.252C47.0891 457.118 49.032 458.57 50.9862 458.091C52.0901 457.821 58.6886 456.942 65.6492 456.138L65.6503 456.139ZM204.4 438.613C224.457 437.774 226.747 437.478 250.986 432.59C265.007 429.763 282.093 426.855 288.955 426.128C305.275 424.4 317.958 422.837 319.713 422.339C320.487 422.119 327.659 421.29 335.651 420.496C354.177 418.657 361.901 417.213 361.901 415.589C361.901 413.887 339.572 414.7 330.495 416.733C324.403 418.098 316.594 419.307 288.776 423.193C269.074 425.946 264.925 426.463 257.838 427.048C253.971 427.367 243.424 429.046 234.4 430.778C225.377 432.51 210.822 434.608 202.056 435.44C184.257 437.13 176.929 438.466 177.793 439.863C178.114 440.382 179.464 440.507 180.838 440.145C182.196 439.787 192.798 439.098 204.4 438.613ZM405.99 411.514C417.338 410.113 430.715 406.869 429.627 405.781C428.17 404.323 402.626 404.665 393.778 406.261C389.396 407.051 383.067 407.952 379.716 408.264C371.594 409.019 362.841 410.828 362.841 411.75C362.841 412.843 396.725 412.658 405.991 411.514L405.99 411.514ZM512.83 402.194C512.83 401.678 511.118 401.256 509.025 401.256C506.727 401.256 505.449 401.627 505.799 402.194C506.118 402.709 507.83 403.131 509.604 403.131C511.379 403.131 512.83 402.709 512.83 402.194ZM465.448 400.725C480.432 400.454 490.461 399.433 505.798 396.616C508.376 396.143 515.548 395.083 521.736 394.261C537.365 392.184 545.865 390.845 547.517 390.199C550.424 389.062 543.095 388.887 534.392 389.884C519.279 391.617 492.051 393.532 485.642 393.312C482.291 393.197 476.174 393.642 472.048 394.3C467.923 394.958 460.751 395.965 456.11 396.538C443.764 398.061 436.621 399.724 436.133 401.188C435.781 402.245 436.869 402.347 442.157 401.753C445.707 401.355 456.187 400.892 465.448 400.725ZM291.518 395.205C296.607 393.877 313.125 390.478 321.58 389.019C323.901 388.619 329.174 387.617 333.299 386.793C344.101 384.635 350.401 383.462 356.268 382.515C374.776 379.528 380.76 378.553 385.33 377.782C388.166 377.303 395.338 376.269 401.268 375.485C407.198 374.701 415.002 373.634 418.612 373.115C422.222 372.596 428.55 371.753 432.674 371.243C436.799 370.733 444.815 369.684 450.486 368.911C465.402 366.88 509.32 362.236 543.81 359.044C559.877 357.557 576.318 357.828 577.308 359.597C578.262 361.301 585.113 363.096 586.265 361.943C587.51 360.698 584.855 357.328 581.3 355.641C577.213 353.701 533.117 354.441 515.642 356.742C509.712 357.522 491.572 359.629 475.33 361.423C459.088 363.217 441.58 365.339 436.424 366.139C431.268 366.94 423.041 368.157 418.143 368.845C406.175 370.525 381.609 374.753 374.081 376.427C370.729 377.173 361.237 379.096 352.987 380.7C344.737 382.304 336.089 384.022 333.768 384.518C331.448 385.014 327.44 385.821 324.862 386.312C322.284 386.802 317.01 387.862 313.143 388.666C309.276 389.471 303.791 390.481 300.955 390.912C294.408 391.906 283.885 394.703 282.721 395.759C281.348 397.003 285.67 396.731 291.518 395.205ZM572.098 387.532C578.564 387.159 583.693 387.343 586.489 388.047C589.842 388.891 591.143 388.883 592.193 388.012C596.064 384.799 583.73 381.661 573.771 383.325C570.419 383.884 566.411 384.543 564.864 384.787C551.845 386.847 545.666 389.516 555.958 388.634C559.31 388.347 566.572 387.851 572.098 387.532ZM370.328 373.562C374.196 372.737 379.68 371.721 382.516 371.303C385.352 370.886 394 369.421 401.735 368.048C409.47 366.674 419.805 364.941 424.704 364.196C429.603 363.451 434.511 362.629 435.611 362.368C441.492 360.974 483.544 355.229 496.891 353.995C522.527 351.625 527.432 351.367 549.391 351.227C573.532 351.074 575.967 350.197 563.453 346.165C553.15 342.845 531.378 343.075 502.515 346.808C476.629 350.156 465.218 351.981 449.077 355.355C439.022 357.457 426.577 359.999 421.421 361.004C411.448 362.949 399.63 365.605 388.14 368.482C384.273 369.451 377.655 370.467 373.433 370.74C369.212 371.013 364.571 371.714 363.121 372.297C357.852 374.417 356.709 374.872 355.328 375.4C352.805 376.364 363.123 375.1 370.328 373.562ZM482.828 344.09C485.701 343.361 503.719 340.612 516.812 338.904C521.87 338.244 522.821 336.605 518.219 336.479C507.909 336.197 502.506 336.951 483.766 341.287C479.383 342.302 474.721 343.13 473.406 343.128C471.17 343.125 468.766 344.604 468.766 345.983C468.766 346.632 477.383 345.472 482.828 344.09ZM585.018 345.58C585.018 344.322 582.262 342.103 577.591 339.601C575.14 338.288 568.143 338.295 568.143 339.61C568.143 340.051 569.725 341.039 571.659 341.805C573.593 342.572 576.651 344.017 578.456 345.017C582.327 347.163 585.018 347.394 585.018 345.58ZM1143.01 451.2C1138.48 450.642 1139.82 448.712 1145.25 447.981C1159.53 446.058 1167.6 448.294 1154.94 450.667C1148.75 451.828 1148.27 451.849 1143.01 451.2ZM19.7083 447.35C19.7083 446.926 19.0959 442.812 18.3474 438.21C16.3198 425.742 13.6636 384.889 12.866 353.904C12.4012 335.848 16.7888 310.534 19.115 317.851C20.3413 321.708 21.4158 353.704 20.9555 372.654C20.5747 388.332 20.8447 399.262 21.945 412.707C24.1106 439.168 24.0191 448.123 21.5833 448.123C20.5521 448.123 19.7083 447.775 19.7083 447.35ZM1067.81 447.269C1067.81 444.982 1107.68 444.67 1111.4 446.928C1112.91 447.84 1108.78 448.071 1090.54 448.094C1077.49 448.111 1067.81 447.759 1067.81 447.269ZM971.258 444.789C941.61 443.612 912.209 442.616 905.923 442.576C898.332 442.527 894.268 442.137 893.821 441.414C893.313 440.592 898.869 440.49 916.5 440.998C929.343 441.367 946.18 441.851 953.914 442.073C961.649 442.295 970.93 442.7 974.539 442.972C978.149 443.243 990.422 443.646 1001.82 443.867C1022.6 444.27 1027.94 444.797 1026.98 446.352C1026.69 446.813 1026.17 447.131 1025.81 447.06C1025.46 446.988 1000.91 445.966 971.258 444.789ZM37.1083 437.999C36.8353 437.119 36.1743 430.499 35.6383 423.279C35.1033 416.059 34.2543 407.839 33.7523 404.999C32.4666 397.736 28.365 364.76 27.6305 355.78C27.2931 351.655 26.4245 346.473 25.7003 344.263C24.1551 339.549 24.03 330.309 25.3867 321.093C25.918 317.484 26.4682 312.703 26.6094 310.469C26.9429 305.193 29.0484 303.561 32.3802 305.998C34.5368 307.575 35.519 323.813 33.8876 330.919C32.7836 335.727 33.8556 360.067 36.0973 381.094C40.7251 424.502 41.1981 451.132 37.1083 437.999ZM646.888 430.409C646.888 428.581 653.304 427.793 657.983 429.046C659.618 429.483 659.855 429.832 658.921 430.425C657.248 431.485 646.888 431.472 646.888 430.409ZM740.872 429.638C731.813 429.452 725.638 428.954 725.638 428.411C725.638 427.156 767.518 427.178 768.294 428.434C768.643 428.998 767.406 429.371 765.186 429.371C763.157 429.371 760.285 429.502 758.802 429.661C757.32 429.82 749.252 429.81 740.872 429.638ZM664.693 426.545C663.891 425.047 663.993 424.537 665.187 424.079C667.527 423.181 693.106 425.024 693.464 426.116C693.678 426.767 690.528 426.839 683.78 426.339C675.435 425.721 673.521 425.833 672.213 427.016C669.951 429.063 665.905 428.81 664.693 426.545ZM1014.14 427.584C999.953 426.34 1007.73 425.149 1031.74 424.889C1056.57 424.621 1060.73 424.89 1060.12 426.728C1059.73 427.892 1025.02 428.537 1014.14 427.584ZM842.123 426.806C833.941 425.824 839.947 423.616 852.371 423.039C869.042 422.264 873.75 424.985 857.592 426.056C852.307 426.406 847.35 426.801 846.576 426.932C845.802 427.064 843.799 427.007 842.123 426.806ZM877.609 426.592C875.173 426.296 873.077 425.437 872.486 424.495C871.179 422.408 872.372 421.265 874.24 422.815C875.429 423.801 889.757 425.27 901.186 425.577C902.088 425.602 902.826 426.034 902.826 426.539C902.826 427.489 885.277 427.526 877.609 426.592ZM737.829 424.953C725.412 424.403 726.985 423.069 740.784 422.445C762.479 421.465 807.703 422.286 808.561 423.676C808.815 424.087 800.07 424.503 789.126 424.6C778.183 424.698 767.753 424.813 765.948 424.858C764.143 424.902 760.768 424.789 758.448 424.606C756.128 424.424 752.331 424.506 750.011 424.79C747.69 425.074 742.209 425.147 737.829 424.953ZM935.639 424.944C926.384 424.601 924.18 424.097 926.278 422.801C928.971 421.136 964.701 422.927 964.701 424.726C964.701 425.575 954.69 425.651 935.639 424.944ZM894.523 422.912C891.959 421.287 895.431 420.791 904.75 421.452C909.902 421.817 914.344 422.483 914.621 422.931C915.275 423.989 896.194 423.971 894.523 422.912ZM880.823 421.872C881.142 421.356 883.673 420.934 886.448 420.934C889.223 420.934 891.755 421.356 892.073 421.872C892.437 422.461 890.346 422.809 886.448 422.809C882.551 422.809 880.459 422.461 880.823 421.872ZM791.918 412.85C791.832 412.786 776.426 412.512 757.683 412.241C734.762 411.91 723.268 411.41 722.574 410.716C721.823 409.965 722.04 409.675 723.371 409.651C742.202 409.307 826.181 410.551 826.841 411.184C828.151 412.444 793.614 414.092 791.92 412.85L791.918 412.85ZM834.417 412.595C829.587 411.722 833.41 410.439 838.442 411.243C841.626 411.752 841.368 413.638 838.167 413.245C837.909 413.213 836.222 412.921 834.417 412.595ZM675.037 410.525C636.753 409.494 624.292 408.766 625.011 407.602C625.819 406.295 701.29 407.807 713.475 409.375C716.818 409.805 717.305 410.074 715.819 410.674C713.676 411.538 712.507 411.534 675.037 410.525ZM67.3873 409.205C66.6664 408.103 66.0863 404.958 60.9051 374.059C59.8846 367.973 56.1798 342.752 53.9103 326.441C53.0284 320.102 52.5357 314.687 52.8156 314.408C55.2376 311.986 60.5641 340.055 63.7036 371.782C64.7275 382.131 66.2488 393.604 67.0843 397.277C68.5252 403.612 68.7193 411.241 67.3879 409.206L67.3873 409.205ZM777.337 402.275C776.3 401.615 776.393 401.347 777.806 400.93C780.749 400.061 829.727 400.461 829.727 401.354C829.727 401.81 827.512 402.18 824.805 402.176C822.098 402.171 810.602 402.377 799.258 402.633C787.914 402.889 778.05 402.728 777.337 402.275ZM853.867 402.395C848.84 402.241 844.727 401.759 844.727 401.322C844.727 399.369 884.648 398.594 888.17 400.479C892.642 402.872 884.469 403.329 853.867 402.395ZM621.147 375.015C620.865 374.557 621.054 373.923 621.568 373.605C622.082 373.288 623.859 370.304 625.515 366.976C628.287 361.406 631.846 356.483 638.355 349.21C639.74 347.663 641.784 344.913 642.897 343.1C644.011 341.286 646.046 338.755 647.42 337.475C648.793 336.195 652.858 331.243 656.453 326.472C660.048 321.7 663.779 317.373 664.745 316.856C665.711 316.339 668.519 313.282 670.985 310.063C673.451 306.844 677.101 302.522 679.095 300.46C681.09 298.397 683.841 295.239 685.208 293.442C686.576 291.644 688.961 288.881 690.508 287.301C692.054 285.722 698.586 278.755 705.023 271.819C717.845 258.003 735.711 240.7 738.938 238.973C740.064 238.371 742.069 236.56 743.394 234.95C744.72 233.339 747.754 229.912 750.137 227.334C760.357 216.278 772.665 201.988 778.398 194.522C782.878 188.688 790.271 180.82 796.253 175.52C798.156 173.835 800.83 170.249 802.197 167.551C803.563 164.854 806.902 160.425 809.617 157.71C812.331 154.995 816.516 149.721 818.916 145.991C839.813 113.511 846.565 104.091 852.899 98.5821C855.88 95.9884 860.64 90.5911 863.476 86.5882C870.461 76.7277 879.584 67.2212 884.627 64.5452C889.024 62.2124 890.07 59.5862 886.99 58.6089C886.002 58.2951 884.071 57.1562 882.7 56.0779C879.472 53.5386 867.156 47.2809 863.763 46.4558C862.316 46.1039 858.389 44.4097 855.038 42.6911C848.945 39.5667 834.501 33.733 828.624 32.0231C826.91 31.5243 821.921 29.7774 817.538 28.1411C813.155 26.5048 806.528 24.1663 802.811 22.9445C794.412 20.1835 792.637 19.2574 788.275 15.357C784.112 11.6351 777.354 8.08635 771.585 6.59245C764.444 4.74355 764.101 4.58955 764.101 3.24175C764.101 1.19015 767.281 -0.00965038 772.711 -0.00585038C778.258 -0.00194928 779.658 0.69109 790.239 8.67255C797.274 13.9796 798.942 14.7575 812.607 19.1085C816.856 20.4614 822.551 22.5799 825.263 23.816C827.975 25.0521 832.092 26.7013 834.413 27.4809C836.733 28.2606 842.217 30.4431 846.601 32.3311C850.983 34.2191 856.848 36.5732 859.632 37.5624C862.416 38.5516 867.267 40.7961 870.413 42.5502C873.558 44.3043 879.554 47.0559 883.738 48.6648C893.105 52.2676 894.872 53.9914 894.095 58.7748C893.51 62.3776 892.229 63.7757 885.506 68.1479C879.53 72.0351 868.766 83.941 860.675 95.616C856.566 101.546 851.812 107.874 850.111 109.678C843.078 117.143 834.273 128.762 825.975 141.527C819.28 151.828 811.546 162.447 803.981 171.728C800.908 175.499 795.247 182.51 791.401 187.309C787.556 192.108 783.448 196.538 782.273 197.153C781.098 197.769 778.743 200.209 777.04 202.575C771.08 210.858 734.818 248.788 694.666 288.739C688.188 295.185 681.441 302.357 679.673 304.677C677.905 306.998 675.035 310.373 673.295 312.177C671.554 313.982 668.604 317.357 666.737 319.677C664.871 321.998 660.648 326.849 657.351 330.458C654.055 334.068 649.228 340.185 646.625 344.052C644.022 347.92 640.213 353.089 638.16 355.539C636.107 357.99 632.491 363.227 630.123 367.176C626.128 373.842 622.422 377.078 621.146 375.013L621.147 375.015ZM1036.58 293.715C1036.26 293.394 1024.92 292.795 1011.38 292.384C997.838 291.973 981.909 291.152 975.979 290.56C970.05 289.968 960.557 289.362 954.885 289.214C949.213 289.065 941.197 288.473 937.073 287.897C918.526 285.309 877.028 282.104 856.448 281.669C846.136 281.451 831.581 281.006 824.104 280.679C785.489 278.989 750.195 279.499 718.884 282.197C708.626 283.081 705.63 282.772 706.256 280.895C706.904 278.951 709.372 278.735 761.766 276.029C771.767 275.512 810.438 275.521 847.078 276.049C869.965 276.379 906.841 278.509 912.864 279.85C915.72 280.485 930.603 282.039 948.797 283.602C957.305 284.333 968.906 285.341 974.578 285.844C991.893 287.378 1002.92 287.758 1046.65 288.327C1088.38 288.871 1093.59 289.289 1093.01 292.048C1092.69 293.519 1038 295.135 1036.58 293.715L1036.58 293.715ZM560.977 287.57C555.652 279.091 547.544 260.602 549.163 260.628C550.079 260.642 554.103 266.806 554.103 268.193C554.103 268.765 554.697 270.353 555.424 271.721C560.282 280.873 564.711 293.515 560.977 287.57ZM564.861 246.517C563.089 243.649 577.22 225.585 598.567 203.43C602.79 199.047 607.187 193.824 608.338 191.825C611.71 185.968 616.186 180.978 638.184 158.546C649.624 146.881 660.565 135.227 662.498 132.649C664.431 130.07 668.359 125.134 671.229 121.68C678.944 112.392 682.517 107.528 692.551 92.6555C697.54 85.2609 703.34 76.7295 705.44 73.6975C707.54 70.6652 709.867 67.2902 710.611 66.1975C711.354 65.1048 715.573 59.405 719.986 53.5315C730.826 39.1665 739.126 27.0556 743.206 19.6896C747.746 11.5136 750.816 7.50155 752.556 7.50155C755.805 7.50155 751.996 16.8042 745.982 23.5546C743.858 25.9382 740.937 29.7351 739.49 31.9921C738.042 34.2491 735.722 37.6269 734.333 39.4984C732.945 41.3699 729.277 46.43 726.184 50.7434C720.964 58.0202 718.539 61.7904 705.151 83.4394C690.413 107.272 673.09 129.525 652.239 151.408C644.378 159.658 636.074 168.517 633.784 171.096C631.494 173.675 623.293 182.562 615.559 190.846C598.692 208.913 586.243 223.113 583.684 227.203C575.086 240.947 566.76 249.518 564.911 246.526L564.861 246.517Z" fill="#e6e6e6"/>
</svg>
